<svg xmlns="http://www.w3.org/2000/svg" viewBox="0 0 68.93 65.78">
    <path d="M50,69.65a2.35,2.35,0,0,0-1.1.27L31.09,79.28A2.21,2.21,0,0,1,27.89,77L31.28,57.2A2.5,2.5,0,0,0,30.55,55L16.2,41a2.21,2.21,0,0,1,1.23-3.77l19.8-2.88a2.54,2.54,0,0,0,1.93-1.4L48,15a2.18,2.18,0,0,1,2-1.23" transform="translate(-15.53 -13.76)" style="fill:#fb0"/>
    <path d="M50,15.76a.19.19,0,0,1,.19.12L59,33.74a4.77,4.77,0,0,0,3.58,2.6L82.29,39.2a.19.19,0,0,1,.16.14.18.18,0,0,1,0,.21L68.29,53.31a5.1,5.1,0,0,0-1.48,4.55l3.33,19.43a.18.18,0,0,1,0,.16.24.24,0,0,1-.16.09.19.19,0,0,1-.1,0L52,68.15a4.41,4.41,0,0,0-4.08,0l-17.8,9.36a.19.19,0,0,1-.1,0,.24.24,0,0,1-.16-.09.18.18,0,0,1,0-.16l3.39-19.75a4.54,4.54,0,0,0-1.3-4l-14.35-14a.18.18,0,0,1-.05-.21.19.19,0,0,1,.16-.14l19.81-2.88A4.56,4.56,0,0,0,41,33.82l8.85-17.94a.19.19,0,0,1,.19-.12m0-2A2.18,2.18,0,0,0,48,15L39.16,32.94a2.54,2.54,0,0,1-1.93,1.4l-19.8,2.88A2.21,2.21,0,0,0,16.2,41L30.55,55a2.5,2.5,0,0,1,.73,2.23L27.89,77a2.21,2.21,0,0,0,2.17,2.59,2.19,2.19,0,0,0,1-.26L48.9,69.92a2.38,2.38,0,0,1,2.2,0l17.81,9.36a2.19,2.19,0,0,0,1,.26A2.21,2.21,0,0,0,72.11,77L68.78,57.52a3.14,3.14,0,0,1,.9-2.78L83.8,41a2.21,2.21,0,0,0-1.23-3.77L62.86,34.36a2.77,2.77,0,0,1-2.07-1.51L52,15a2.18,2.18,0,0,0-2-1.23Z" transform="translate(-15.53 -13.76)" style="fill:#725500"/>
</svg>